<svg width="232" height="55" viewBox="0 0 232 55" fill="none" xmlns="http://www.w3.org/2000/svg">
<path d="M21.096 33.504C21.096 32.512 20.696 31.584 19.896 30.72C19.096 29.856 18.088 29.072 16.872 28.368C15.688 27.632 14.072 26.736 12.024 25.68C9.592 24.4 7.64 23.312 6.168 22.416C4.696 21.488 3.432 20.4 2.376 19.152C1.352 17.904 0.84 16.528 0.84 15.024C0.84 13.424 1.512 11.712 2.856 9.888C4.2 8.032 5.832 6.48 7.752 5.232C9.704 3.952 11.496 3.312 13.128 3.312C15.112 3.312 17.416 3.552 20.04 4.032C22.664 4.512 24.584 5.024 25.8 5.568V14.88H23.976C22.408 12.288 20.68 10.272 18.792 8.832C16.936 7.392 14.984 6.672 12.936 6.672C11.112 6.672 9.656 7.248 8.568 8.4C7.512 9.52 6.984 10.992 6.984 12.816C6.984 13.872 7.384 14.864 8.184 15.792C9.016 16.688 10.024 17.488 11.208 18.192C12.424 18.896 14.104 19.808 16.248 20.928C18.616 22.112 20.536 23.168 22.008 24.096C23.48 24.992 24.712 26.048 25.704 27.264C26.728 28.448 27.24 29.792 27.24 31.296C27.24 32.896 26.52 34.624 25.08 36.48C23.64 38.304 21.88 39.856 19.8 41.136C17.752 42.384 15.88 43.008 14.184 43.008C12.104 43.008 9.624 42.768 6.744 42.288C3.896 41.808 1.848 41.296 0.6 40.752V31.44H2.424C4.056 34.032 5.912 36.048 7.992 37.488C10.072 38.928 12.216 39.648 14.424 39.648C15.736 39.648 16.904 39.36 17.928 38.784C18.952 38.208 19.736 37.456 20.28 36.528C20.824 35.568 21.096 34.56 21.096 33.504ZM62.0014 42H52.8814V25.824C52.8814 24.064 52.6094 22.832 52.0654 22.128C51.5214 21.424 50.5454 21.072 49.1374 21.072C48.0814 21.072 47.0254 21.264 45.9694 21.648C44.9454 22.032 43.7294 22.768 42.3214 23.856V38.4L46.6414 40.08L45.6814 42H32.2894V40.512L36.5614 37.152V7.632L32.2894 4.656V3.168L40.4974 0.0959988H42.3214V21.6L48.8974 16.416C49.5694 16.16 50.4494 16.032 51.5374 16.032C53.7134 16.032 55.4414 16.704 56.7214 18.048C58.0014 19.36 58.6414 21.152 58.6414 23.424V38.4L62.9614 40.08L62.0014 42ZM81.9799 16.032C84.0919 16.032 85.9799 16.592 87.6439 17.712C89.3399 18.8 90.6519 20.288 91.5799 22.176C92.5399 24.064 93.0199 26.144 93.0199 28.416C93.0199 30.88 92.2679 33.2 90.7639 35.376C89.2599 37.52 87.3719 39.248 85.0999 40.56C82.8599 41.84 80.6839 42.48 78.5719 42.48C76.4599 42.48 74.5559 41.936 72.8599 40.848C71.1959 39.728 69.8839 38.224 68.9239 36.336C67.9959 34.448 67.5319 32.368 67.5319 30.096C67.5319 27.632 68.2839 25.328 69.7879 23.184C71.2919 21.008 73.1639 19.28 75.4039 18C77.6759 16.688 79.8679 16.032 81.9799 16.032ZM79.1959 20.064C75.5799 20.064 73.7719 22.64 73.7719 27.792C73.7719 30.832 74.4279 33.376 75.7399 35.424C77.0519 37.44 78.9239 38.448 81.3559 38.448C84.9719 38.448 86.7799 35.856 86.7799 30.672C86.7799 27.664 86.1239 25.152 84.8119 23.136C83.4999 21.088 81.6279 20.064 79.1959 20.064ZM113.847 42.528C112.119 42.528 110.519 42 109.047 40.944V50.256L115.767 52.32L114.807 54.24H99.015V52.752L103.287 49.392V23.616L99.015 21.12V19.632L107.223 15.6L108.807 21.84L115.671 16.416C116.695 16.16 117.863 16.032 119.175 16.032C120.903 16.032 122.455 16.592 123.831 17.712C125.239 18.8 126.327 20.288 127.095 22.176C127.895 24.064 128.295 26.144 128.295 28.416C128.295 30.88 127.543 33.2 126.039 35.376C124.535 37.52 122.647 39.248 120.375 40.56C118.135 41.84 115.959 42.48 113.847 42.48V42.528ZM116.727 20.64C115.511 20.64 114.327 20.88 113.175 21.36C112.023 21.84 110.647 22.784 109.047 24.192V32.304C109.047 34.064 109.703 35.536 111.015 36.72C112.327 37.904 114.199 38.496 116.631 38.496C120.247 38.496 122.055 35.92 122.055 30.768C122.055 27.92 121.591 25.52 120.663 23.568C119.735 21.616 118.423 20.64 116.727 20.64ZM145.064 37.248C145.064 38.528 145.096 39.712 145.16 40.8C145.256 41.856 145.368 42.576 145.496 42.96L136.28 54.672L134.456 53.232C136.28 50.928 137.496 48.976 138.104 47.376C138.744 45.776 139.064 43.808 139.064 41.472V8.064L133.112 6.192L134.072 4.272H149.624V5.76L145.064 9.312V37.248ZM176.016 3.312C179.408 3.312 182.4 4.128 184.992 5.76C187.616 7.392 189.648 9.648 191.088 12.528C192.528 15.408 193.248 18.672 193.248 22.32C193.248 26.064 192.16 29.52 189.984 32.688C187.808 35.856 185.104 38.368 181.872 40.224C178.64 42.048 175.552 42.96 172.608 42.96C169.216 42.96 166.208 42.16 163.584 40.56C160.992 38.928 158.976 36.672 157.536 33.792C156.096 30.912 155.376 27.648 155.376 24C155.376 20.256 156.464 16.8 158.64 13.632C160.816 10.432 163.52 7.92 166.752 6.096C169.984 4.24 173.072 3.312 176.016 3.312ZM173.232 7.344C171.12 7.344 169.184 7.968 167.424 9.216C165.696 10.432 164.336 12.144 163.344 14.352C162.352 16.528 161.856 18.976 161.856 21.696C161.856 24.832 162.352 27.712 163.344 30.336C164.336 32.928 165.84 35.008 167.856 36.576C169.904 38.144 172.416 38.928 175.392 38.928C177.504 38.928 179.424 38.32 181.152 37.104C182.912 35.856 184.288 34.144 185.28 31.968C186.272 29.76 186.768 27.296 186.768 24.576C186.768 21.408 186.272 18.528 185.28 15.936C184.288 13.312 182.784 11.232 180.768 9.696C178.752 8.128 176.24 7.344 173.232 7.344ZM223.666 21.696C226.13 22.4 228.066 23.584 229.474 25.248C230.882 26.912 231.586 28.832 231.586 31.008C231.586 33.024 230.77 34.928 229.138 36.72C227.538 38.48 225.522 39.888 223.09 40.944C220.69 42 218.402 42.528 216.226 42.528C214.626 42.528 213.058 42.448 211.522 42.288C208.962 42.128 206.978 42.048 205.57 42.048H199.474V40.56L203.986 37.008V7.824L198.994 6.192L199.954 4.272H205.522C208.434 4.272 211.298 4.176 214.114 3.984C216.29 3.856 217.89 3.792 218.914 3.792C221.058 3.792 222.946 4.208 224.578 5.04C226.21 5.872 227.458 7.008 228.322 8.448C229.218 9.856 229.666 11.44 229.666 13.2C229.666 14.8 229.106 16.336 227.986 17.808C226.898 19.248 225.458 20.512 223.666 21.6V21.696ZM223.186 15.6C223.186 13.072 222.514 11.008 221.17 9.408C219.826 7.808 217.826 7.008 215.17 7.008C213.25 7.008 211.522 7.552 209.986 8.64V21.36H216.85C218.834 21.36 220.386 20.864 221.506 19.872C222.626 18.848 223.186 17.408 223.186 15.552V15.6ZM217.57 39.024C219.874 39.024 221.698 38.448 223.042 37.296C224.418 36.144 225.106 34.592 225.106 32.64C225.106 30.144 224.37 28.128 222.898 26.592C221.458 25.056 219.298 24.24 216.418 24.144C216.194 24.176 215.89 24.192 215.506 24.192H209.986V37.776C212.13 38.64 214.658 39.072 217.57 39.072V39.024Z" fill="white"/>
</svg>
